<svg width="38" height="38" viewBox="0 0 38 38" fill="none" xmlns="http://www.w3.org/2000/svg">
<rect width="38" height="38" rx="8" fill="white"/>
<path d="M23.5835 11.2084H14.4168C11.6668 11.2084 9.8335 12.5834 9.8335 15.7917V22.2084C9.8335 25.4167 11.6668 26.7917 14.4168 26.7917H23.5835C26.3335 26.7917 28.1668 25.4167 28.1668 22.2084V15.7917C28.1668 12.5834 26.3335 11.2084 23.5835 11.2084ZM24.0143 16.7909L21.1452 19.0825C20.5402 19.5684 19.7702 19.8067 19.0002 19.8067C18.2302 19.8067 17.451 19.5684 16.8552 19.0825L13.986 16.7909C13.6927 16.5525 13.6468 16.1125 13.876 15.8192C14.1143 15.5259 14.5452 15.4709 14.8385 15.7092L17.7077 18.0009C18.4043 18.56 19.5868 18.56 20.2835 18.0009L23.1527 15.7092C23.446 15.4709 23.886 15.5167 24.1152 15.8192C24.3535 16.1125 24.3077 16.5525 24.0143 16.7909Z" fill="#303F9F"/>
</svg>
