<svg width="38" height="38" viewBox="0 0 38 38" fill="none" xmlns="http://www.w3.org/2000/svg">
<rect width="38" height="38" rx="8" fill="white"/>
<path d="M28.1393 24.8025C28.1393 25.1325 28.066 25.4717 27.9102 25.8017C27.7543 26.1317 27.5527 26.4434 27.2868 26.7367C26.8377 27.2317 26.3427 27.5892 25.7835 27.8184C25.2335 28.0475 24.6377 28.1667 23.996 28.1667C23.061 28.1667 22.0618 27.9467 21.0077 27.4975C19.9535 27.0484 18.8993 26.4434 17.8543 25.6825C16.8002 24.9125 15.801 24.06 14.8477 23.1159C13.9035 22.1625 13.051 21.1634 12.2902 20.1184C11.5385 19.0734 10.9335 18.0284 10.4935 16.9925C10.0535 15.9475 9.8335 14.9484 9.8335 13.995C9.8335 13.3717 9.9435 12.7759 10.1635 12.2259C10.3835 11.6667 10.7318 11.1534 11.2177 10.695C11.8043 10.1175 12.446 9.83337 13.1243 9.83337C13.381 9.83337 13.6377 9.88837 13.8668 9.99837C14.1052 10.1084 14.316 10.2734 14.481 10.5117L16.6077 13.5092C16.7727 13.7384 16.8918 13.9492 16.9743 14.1509C17.0568 14.3434 17.1027 14.5359 17.1027 14.71C17.1027 14.93 17.0385 15.15 16.9102 15.3609C16.791 15.5717 16.6168 15.7917 16.3968 16.0117L15.7002 16.7359C15.5993 16.8367 15.5535 16.9559 15.5535 17.1025C15.5535 17.1759 15.5627 17.24 15.581 17.3134C15.6085 17.3867 15.636 17.4417 15.6543 17.4967C15.8193 17.7992 16.1035 18.1934 16.5068 18.67C16.9193 19.1467 17.3593 19.6325 17.836 20.1184C18.331 20.6042 18.8077 21.0534 19.2935 21.4659C19.7702 21.8692 20.1643 22.1442 20.476 22.3092C20.5218 22.3275 20.5768 22.355 20.641 22.3825C20.7143 22.41 20.7877 22.4192 20.8702 22.4192C21.026 22.4192 21.1452 22.3642 21.246 22.2634L21.9427 21.5759C22.1718 21.3467 22.3918 21.1725 22.6027 21.0625C22.8135 20.9342 23.0243 20.87 23.2535 20.87C23.4277 20.87 23.611 20.9067 23.8127 20.9892C24.0143 21.0717 24.2252 21.1909 24.4543 21.3467L27.4885 23.5009C27.7268 23.6659 27.8918 23.8584 27.9927 24.0875C28.0843 24.3167 28.1393 24.5459 28.1393 24.8025Z" fill="#303F9F"/>
</svg>
