<svg width="113" height="113" viewBox="0 0 113 113" fill="none" xmlns="http://www.w3.org/2000/svg">
<path d="M70.8285 0C54.3987 0 41.0336 13.3651 41.0336 29.7949C41.0336 46.2247 54.3987 59.5898 70.8285 59.5898C87.2583 59.5898 100.623 46.2247 100.623 29.7949C100.623 13.3651 87.2583 0 70.8285 0ZM74.139 48.0029H67.5179V41.3818H74.139V48.0029ZM76.4796 30.4802C74.8565 32.1033 74.139 32.8984 74.139 34.7607H67.5179C67.5179 30.0794 69.9945 27.6062 71.7985 25.7991C73.4215 24.176 74.139 23.3808 74.139 21.5186C74.139 19.692 72.6519 18.208 70.8285 18.208C69.005 18.208 67.5179 19.692 67.5179 21.5186H60.8969C60.8969 16.042 65.352 11.5869 70.8285 11.5869C76.305 11.5869 80.7601 16.042 80.7601 21.5186C80.7601 26.1999 78.2836 28.6731 76.4796 30.4802Z" fill="url(#paint0_linear_2053_878)"/>
<path d="M1.30701 73.2734H14.5492V113H1.30701V73.2734Z" fill="url(#paint1_linear_2053_878)"/>
<path d="M108.712 63.4841C103.802 61.0553 97.8648 63.0493 95.4159 67.9416L82.8034 93.1367H41.0336V86.5156C42.0598 86.5156 82.3055 86.5156 80.7601 86.5156C80.7601 79.2019 74.8314 73.2734 67.5179 73.2734C66.7876 73.2734 51.3358 73.2734 52.2844 73.2734C43.5882 65.4386 30.9852 64.4382 21.1703 70.0573V107.106H90.6141L111.693 64.958L108.712 63.4841Z" fill="url(#paint2_linear_2053_878)"/>
<defs>
<linearGradient id="paint0_linear_2053_878" x1="70.8285" y1="0" x2="70.8285" y2="59.5898" gradientUnits="userSpaceOnUse">
<stop stop-color="#2F2F2F" stop-opacity="0.2"/>
<stop offset="1" stop-color="#2F2F2F" stop-opacity="0"/>
</linearGradient>
<linearGradient id="paint1_linear_2053_878" x1="7.9281" y1="73.2734" x2="7.9281" y2="113" gradientUnits="userSpaceOnUse">
<stop stop-color="#2F2F2F" stop-opacity="0.2"/>
<stop offset="1" stop-color="#2F2F2F" stop-opacity="0"/>
</linearGradient>
<linearGradient id="paint2_linear_2053_878" x1="66.4316" y1="62.4497" x2="66.4316" y2="107.106" gradientUnits="userSpaceOnUse">
<stop stop-color="#2F2F2F" stop-opacity="0.2"/>
<stop offset="1" stop-color="#2F2F2F" stop-opacity="0"/>
</linearGradient>
</defs>
</svg>
