<svg width="110" height="120" viewBox="0 0 110 120" fill="none" xmlns="http://www.w3.org/2000/svg">
<path d="M83.3438 100.188V96.2188C83.3438 94.1136 82.5075 92.0947 81.0189 90.6061C79.5303 89.1175 77.5114 88.2812 75.4062 88.2812H25.7969C23.6917 88.2812 21.6728 89.1175 20.1842 90.6061C18.6956 92.0947 17.8594 94.1136 17.8594 96.2188V100.188C16.2805 100.188 14.7663 100.815 13.6499 101.931C12.5335 103.048 11.9062 104.562 11.9062 106.141C11.9062 107.719 12.5335 109.234 13.6499 110.35C14.7663 111.467 16.2805 112.094 17.8594 112.094H83.3438C84.9226 112.094 86.4368 111.467 87.5532 110.35C88.6697 109.234 89.2969 107.719 89.2969 106.141C89.2969 104.562 88.6697 103.048 87.5532 101.931C86.4368 100.815 84.9226 100.188 83.3438 100.188Z" fill="url(#paint0_linear_2053_917)"/>
<path d="M114.697 91.377L73.9973 50.6774L82.669 42.0057C83.491 42.4294 84.4034 42.6473 85.3281 42.6407C86.5047 42.6397 87.6547 42.29 88.6327 41.6358C89.6107 40.9815 90.373 40.0522 90.8231 38.965C91.2733 37.8779 91.3911 36.6817 91.1619 35.5276C90.9326 34.3735 90.3665 33.3132 89.535 32.4807L66.9925 9.97789C66.0023 8.93913 64.6701 8.29303 63.2414 8.15854C61.8126 8.02404 60.3833 8.41021 59.2166 9.24595C58.05 10.0817 57.2245 11.3107 56.8922 12.7068C56.5598 14.1029 56.743 15.5721 57.4079 16.8438L48.7362 25.5156L44.5293 21.2095C43.9841 20.6595 43.3348 20.2236 42.6193 19.9272C41.9039 19.6308 41.1366 19.4798 40.3622 19.4831C39.1862 19.4801 38.0357 19.8256 37.0558 20.4758C36.076 21.126 35.3106 22.0519 34.8564 23.1366C34.4021 24.2213 34.2793 25.4162 34.5034 26.5706C34.7275 27.7251 35.2885 28.7873 36.1156 29.6232L40.3225 33.8301L31.75 42.5018C30.6354 41.9995 29.3964 41.8408 28.1912 42.0458C26.9859 42.2508 25.8691 42.8102 24.9832 43.6527C24.4283 44.2058 23.9879 44.863 23.6874 45.5866C23.387 46.3102 23.2323 47.086 23.2323 47.8695C23.2323 48.653 23.387 49.4289 23.6874 50.1525C23.9879 50.8761 24.4283 51.5333 24.9832 52.0863L47.3472 74.5296C48.3427 75.507 49.6499 76.1038 51.0406 76.2156C52.4313 76.3274 53.8171 75.9473 54.956 75.1415C56.095 74.3357 56.9147 73.1555 57.2722 71.8069C57.6297 70.4583 57.5021 69.027 56.9118 67.7629L65.5836 59.0912L106.283 99.7907C107.399 100.906 108.912 101.532 110.49 101.532C112.068 101.532 113.581 100.906 114.697 99.7907C115.812 98.6745 116.438 97.1614 116.438 95.5838C116.438 94.0063 115.812 92.4932 114.697 91.377Z" fill="url(#paint1_linear_2053_917)"/>
<defs>
<linearGradient id="paint0_linear_2053_917" x1="50.6016" y1="88.2812" x2="50.6016" y2="112.094" gradientUnits="userSpaceOnUse">
<stop stop-color="#2F2F2F" stop-opacity="0.2"/>
<stop offset="1" stop-color="#2F2F2F" stop-opacity="0"/>
</linearGradient>
<linearGradient id="paint1_linear_2053_917" x1="69.8351" y1="8.13232" x2="69.8351" y2="101.532" gradientUnits="userSpaceOnUse">
<stop stop-color="#2F2F2F" stop-opacity="0.2"/>
<stop offset="1" stop-color="#2F2F2F" stop-opacity="0"/>
</linearGradient>
</defs>
</svg>
