<svg width="127" height="120" viewBox="0 0 127 120" fill="none" xmlns="http://www.w3.org/2000/svg">
<path d="M91.0688 4.25H43.9313C23.4562 4.25 11.25 16.4562 11.25 36.9313V84.0688C11.25 104.544 23.4562 116.75 43.9313 116.75H91.0688C111.544 116.75 123.75 104.544 123.75 84.0688V36.9313C123.75 16.4562 111.544 4.25 91.0688 4.25ZM56.0813 76.8125L43.425 89.4688C42.5812 90.3125 41.5125 90.7063 40.4438 90.7063C39.375 90.7063 38.25 90.3125 37.4625 89.4688L33.2437 85.25C31.5562 83.6188 31.5562 80.9188 33.2437 79.2875C34.875 77.6562 37.5187 77.6562 39.2062 79.2875L40.4438 80.525L50.1187 70.85C51.75 69.2188 54.3938 69.2188 56.0813 70.85C57.7125 72.4813 57.7125 75.1813 56.0813 76.8125ZM56.0813 37.4375L43.425 50.0937C42.5812 50.9375 41.5125 51.3312 40.4438 51.3312C39.375 51.3312 38.25 50.9375 37.4625 50.0937L33.2437 45.875C31.5562 44.2437 31.5562 41.5438 33.2437 39.9125C34.875 38.2812 37.5187 38.2812 39.2062 39.9125L40.4438 41.15L50.1187 31.475C51.75 29.8438 54.3938 29.8438 56.0813 31.475C57.7125 33.1063 57.7125 35.8063 56.0813 37.4375ZM98.775 86.4875H69.2438C66.9375 86.4875 65.025 84.575 65.025 82.2688C65.025 79.9625 66.9375 78.05 69.2438 78.05H98.775C101.137 78.05 102.994 79.9625 102.994 82.2688C102.994 84.575 101.137 86.4875 98.775 86.4875ZM98.775 47.1125H69.2438C66.9375 47.1125 65.025 45.2 65.025 42.8937C65.025 40.5875 66.9375 38.675 69.2438 38.675H98.775C101.137 38.675 102.994 40.5875 102.994 42.8937C102.994 45.2 101.137 47.1125 98.775 47.1125Z" fill="url(#paint0_linear_2053_869)"/>
<defs>
<linearGradient id="paint0_linear_2053_869" x1="67.5" y1="4.25" x2="67.5" y2="116.75" gradientUnits="userSpaceOnUse">
<stop stop-color="#2F2F2F" stop-opacity="0.2"/>
<stop offset="1" stop-color="#2F2F2F" stop-opacity="0"/>
</linearGradient>
</defs>
</svg>
