<svg width="108" height="113" viewBox="0 0 108 113" fill="none" xmlns="http://www.w3.org/2000/svg">
<g clip-path="url(#clip0_2053_899)">
<path d="M12.6781 0C6.91248 0 2.00735 3.68486 0.189642 8.82812C-0.168559 9.84159 -0.0125217 10.9656 0.608316 11.8432C1.22915 12.7207 2.23688 13.2422 3.31171 13.2422H25.9203C25.9203 5.92875 19.9916 0 12.6781 0Z" fill="url(#paint0_linear_2053_899)"/>
<path d="M61.4753 99.7578C60.7254 104.932 58.2257 109.513 54.6622 113H98.2262C104.339 113 109.687 109.669 112.553 104.727C113.147 103.702 113.149 102.438 112.558 101.412C111.966 100.387 110.872 99.7576 109.688 99.7576H61.4753V99.7578Z" fill="url(#paint1_linear_2053_899)"/>
<path d="M84.984 0H27.3749C29.6135 2.48225 36.0558 8.0283 30.4595 36.827C26.7929 56.6055 19.1888 77.0605 19.3667 97.1193C19.7282 105.929 26.9551 113 35.8517 113C44.9784 113 52.4044 105.574 52.4044 96.4473C52.4044 94.6174 53.8851 93.1367 55.715 93.1367H88.3623C88.8538 81.1909 91.8798 69.1805 94.8152 57.5289C98.1657 44.2247 101.537 30.3328 101.537 16.5527C101.537 7.426 94.1105 0 84.984 0ZM78.3271 72.832H36.4483C34.6199 72.832 33.1377 71.3498 33.1377 69.5215C33.1377 67.6932 34.6199 66.2109 36.4483 66.2109H78.3271C80.1554 66.2109 81.6377 67.6932 81.6377 69.5215C81.6377 71.3498 80.1556 72.832 78.3271 72.832ZM81.4746 59.5898H39.6831C37.8548 59.5898 36.3726 58.1076 36.3726 56.2793C36.3726 54.451 37.8548 52.9688 39.6831 52.9688H81.4743C83.3026 52.9688 84.7849 54.451 84.7849 56.2793C84.7849 58.1076 83.3029 59.5898 81.4746 59.5898ZM84.7094 46.3477H42.7352C40.9069 46.3477 39.4247 44.8654 39.4247 43.0371C39.4247 41.2088 40.9069 39.7266 42.7352 39.7266H84.7094C86.5377 39.7266 88.02 41.2088 88.02 43.0371C88.02 44.8654 86.5379 46.3477 84.7094 46.3477ZM87.2349 33.1055H45.0265C43.1982 33.1055 41.716 31.6232 41.716 29.7949C41.716 27.9666 43.1982 26.4844 45.0265 26.4844H87.2351C89.0634 26.4844 90.5457 27.9666 90.5457 29.7949C90.5457 31.6232 89.0632 33.1055 87.2349 33.1055Z" fill="url(#paint2_linear_2053_899)"/>
</g>
<defs>
<linearGradient id="paint0_linear_2053_899" x1="12.9603" y1="0" x2="12.9603" y2="13.2422" gradientUnits="userSpaceOnUse">
<stop stop-color="#2F2F2F" stop-opacity="0.2"/>
<stop offset="1" stop-color="#2F2F2F" stop-opacity="0"/>
</linearGradient>
<linearGradient id="paint1_linear_2053_899" x1="83.8312" y1="99.7576" x2="83.8312" y2="113" gradientUnits="userSpaceOnUse">
<stop stop-color="#2F2F2F" stop-opacity="0.2"/>
<stop offset="1" stop-color="#2F2F2F" stop-opacity="0"/>
</linearGradient>
<linearGradient id="paint2_linear_2053_899" x1="60.4502" y1="0" x2="60.4502" y2="113" gradientUnits="userSpaceOnUse">
<stop stop-color="#2F2F2F" stop-opacity="0.2"/>
<stop offset="1" stop-color="#2F2F2F" stop-opacity="0"/>
</linearGradient>
<clipPath id="clip0_2053_899">
<rect width="113" height="113" fill="white"/>
</clipPath>
</defs>
</svg>
