<svg width="56" height="56" viewBox="0 0 56 56" fill="none" xmlns="http://www.w3.org/2000/svg">
<path opacity="0.4" d="M27.9998 51.3567C40.8865 51.3567 51.3332 40.91 51.3332 28.0233C51.3332 15.1367 40.8865 4.69 27.9998 4.69C15.1132 4.69 4.6665 15.1367 4.6665 28.0233C4.6665 40.91 15.1132 51.3567 27.9998 51.3567Z" fill="#303F9F"/>
<path d="M28 16.1933C23.17 16.1933 19.25 20.1133 19.25 24.9433C19.25 29.68 22.96 33.53 27.8833 33.67C27.9533 33.67 28.0467 33.67 28.0933 33.67C28.14 33.67 28.21 33.67 28.2567 33.67C28.28 33.67 28.3033 33.67 28.3033 33.67C33.0167 33.5067 36.7267 29.68 36.75 24.9433C36.75 20.1133 32.83 16.1933 28 16.1933Z" fill="#303F9F"/>
<path d="M43.8202 45.1733C39.6668 49 34.1135 51.3567 28.0002 51.3567C21.8868 51.3567 16.3335 49 12.1802 45.1733C12.7402 43.05 14.2568 41.1133 16.4735 39.62C22.8435 35.3733 33.2035 35.3733 39.5268 39.62C41.7668 41.1133 43.2602 43.05 43.8202 45.1733Z" fill="#303F9F"/>
</svg>
