<svg xmlns="http://www.w3.org/2000/svg" fill="none">
	<symbol stroke="none" id="user" viewBox="0 0 86 85" xmlns="http://www.w3.org/2000/svg">
		<path opacity="0.4" d="M43.0002 77.9521C62.5602 77.9521 78.4168 62.0955 78.4168 42.5354C78.4168 22.9754 62.5602 7.11877 43.0002 7.11877C23.4401 7.11877 7.5835 22.9754 7.5835 42.5354C7.5835 62.0955 23.4401 77.9521 43.0002 77.9521Z" fill="rgb(var(--prime))" />
		<path stroke="none" d="M43 24.5792C35.6688 24.5792 29.7188 30.5292 29.7188 37.8605C29.7188 45.0501 35.35 50.8938 42.8229 51.1063C42.9292 51.1063 43.0708 51.1063 43.1417 51.1063C43.2125 51.1063 43.3187 51.1063 43.3896 51.1063C43.425 51.1063 43.4604 51.1063 43.4604 51.1063C50.6146 50.8584 56.2458 45.0501 56.2812 37.8605C56.2812 30.5292 50.3313 24.5792 43 24.5792Z" fill="rgb(var(--prime))" />
		<path stroke="none" d="M67.0123 68.5666C60.7081 74.375 52.279 77.9521 42.9998 77.9521C33.7206 77.9521 25.2915 74.375 18.9873 68.5666C19.8373 65.3437 22.1394 62.4041 25.504 60.1375C35.1727 53.6916 50.8977 53.6916 60.4956 60.1375C63.8956 62.4041 66.1623 65.3437 67.0123 68.5666Z" fill="rgb(var(--prime))" />
	</symbol>
	<symbol id="subs" viewBox="0 0 30 30" xmlns="http://www.w3.org/2000/svg">
		<path d="M27.5 16.25V11.25C27.5 5 25 2.5 18.75 2.5H11.25C5 2.5 2.5 5 2.5 11.25V18.75C2.5 25 5 27.5 11.25 27.5H16.25" stroke-width="1.5" stroke-linecap="round" stroke-linejoin="round" />
		<path d="M27.5 16.25V11.25C27.5 5 25 2.5 18.75 2.5H11.25C5 2.5 2.5 5 2.5 11.25V18.75C2.5 25 5 27.5 11.25 27.5H16.25" stroke-width="1.5" stroke-linecap="round" stroke-linejoin="round" />
		<path d="M27.5 16.25V11.25C27.5 5 25 2.5 18.75 2.5H11.25C5 2.5 2.5 5 2.5 11.25V18.75C2.5 25 5 27.5 11.25 27.5H16.25" stroke-width="2" stroke-linecap="round" stroke-linejoin="round" />
		<path d="M20 24.2875L21.975 26.25L26.25 21.25" stroke-width="2" stroke-linecap="round" stroke-linejoin="round" />
		<path d="M8.75 13.125V16.875" stroke-width="2" stroke-linecap="round" stroke-linejoin="round" />
		<path d="M15 13.125V16.875" stroke-width="2" stroke-linecap="round" stroke-linejoin="round" />
		<path d="M21.25 13.125V16.875" stroke-width="2" stroke-linecap="round" stroke-linejoin="round" />
	</symbol>
	<symbol id="chat" viewBox="0 0 30 30" xmlns="http://www.w3.org/2000/svg">
		<path d="M20 2.5H10C5 2.5 2.5 5 2.5 10V26.25C2.5 26.9375 3.0625 27.5 3.75 27.5H20C25 27.5 27.5 25 27.5 20V10C27.5 5 25 2.5 20 2.5Z" stroke-width="2" stroke-linecap="round" stroke-linejoin="round" />
		<path d="M8.75 11.875H21.25" stroke-width="2" stroke-miterlimit="10" stroke-linecap="round" stroke-linejoin="round" />
		<path d="M8.75 18.125H17.5" stroke-width="2" stroke-miterlimit="10" stroke-linecap="round" stroke-linejoin="round" />
	</symbol>
	<symbol id="check" stroke="none" viewBox="0 0 27 27" xmlns="http://www.w3.org/2000/svg">
		<g clip-path="url(#clip0_4028_758)">
			<path d="M13.3333 0C5.98667 0 0 5.98667 0 13.3333C0 20.68 5.98667 26.6667 13.3333 26.6667C20.68 26.6667 26.6667 20.68 26.6667 13.3333C26.6667 5.98667 20.68 0 13.3333 0ZM19.7067 10.2667L12.1467 17.8267C11.96 18.0133 11.7067 18.12 11.44 18.12C11.1733 18.12 10.92 18.0133 10.7333 17.8267L6.96 14.0533C6.57333 13.6667 6.57333 13.0267 6.96 12.64C7.34667 12.2533 7.98667 12.2533 8.37333 12.64L11.44 15.7067L18.2933 8.85333C18.68 8.46667 19.32 8.46667 19.7067 8.85333C20.0933 9.24 20.0933 9.86667 19.7067 10.2667Z" />
		</g>
		<defs>
			<clipPath id="clip0_4028_758">
				<rect width="26.6667" height="26.6667" rx="13.3333" fill="white" />
			</clipPath>
		</defs>
	</symbol>
	<symbol stroke="none" id="phone" viewBox="0 0 38 38" fill="none" xmlns="http://www.w3.org/2000/svg">
		<rect width="38" height="38" rx="8" fill="var(--white)" />
		<path d="M28.1393 24.8025C28.1393 25.1325 28.066 25.4716 27.9102 25.8016C27.7543 26.1316 27.5527 26.4433 27.2868 26.7366C26.8377 27.2316 26.3427 27.5891 25.7835 27.8183C25.2335 28.0475 24.6377 28.1666 23.996 28.1666C23.061 28.1666 22.0618 27.9466 21.0077 27.4975C19.9535 27.0483 18.8993 26.4433 17.8543 25.6825C16.8002 24.9125 15.801 24.06 14.8477 23.1158C13.9035 22.1625 13.051 21.1633 12.2902 20.1183C11.5385 19.0733 10.9335 18.0283 10.4935 16.9925C10.0535 15.9475 9.8335 14.9483 9.8335 13.995C9.8335 13.3716 9.9435 12.7758 10.1635 12.2258C10.3835 11.6666 10.7318 11.1533 11.2177 10.695C11.8043 10.1175 12.446 9.83331 13.1243 9.83331C13.381 9.83331 13.6377 9.88831 13.8668 9.99831C14.1052 10.1083 14.316 10.2733 14.481 10.5116L16.6077 13.5091C16.7727 13.7383 16.8918 13.9491 16.9743 14.1508C17.0568 14.3433 17.1027 14.5358 17.1027 14.71C17.1027 14.93 17.0385 15.15 16.9102 15.3608C16.791 15.5716 16.6168 15.7916 16.3968 16.0116L15.7002 16.7358C15.5993 16.8366 15.5535 16.9558 15.5535 17.1025C15.5535 17.1758 15.5627 17.24 15.581 17.3133C15.6085 17.3866 15.636 17.4416 15.6543 17.4966C15.8193 17.7991 16.1035 18.1933 16.5068 18.67C16.9193 19.1466 17.3593 19.6325 17.836 20.1183C18.331 20.6041 18.8077 21.0533 19.2935 21.4658C19.7702 21.8691 20.1643 22.1441 20.476 22.3091C20.5218 22.3275 20.5768 22.355 20.641 22.3825C20.7143 22.41 20.7877 22.4191 20.8702 22.4191C21.026 22.4191 21.1452 22.3641 21.246 22.2633L21.9427 21.5758C22.1718 21.3466 22.3918 21.1725 22.6027 21.0625C22.8135 20.9341 23.0243 20.87 23.2535 20.87C23.4277 20.87 23.611 20.9066 23.8127 20.9891C24.0143 21.0716 24.2252 21.1908 24.4543 21.3466L27.4885 23.5008C27.7268 23.6658 27.8918 23.8583 27.9927 24.0875C28.0843 24.3166 28.1393 24.5458 28.1393 24.8025Z" fill="rgb(var(--prime))" />
	</symbol>
	<symbol stroke="none" id="phone_r" viewBox="0 0 38 38" fill="none" xmlns="http://www.w3.org/2000/svg">
		<rect width="38" height="38" rx="8" fill="rgb(var(--prime))" />
		<path d="M28.1393 24.8025C28.1393 25.1325 28.066 25.4716 27.9102 25.8016C27.7543 26.1316 27.5527 26.4433 27.2868 26.7366C26.8377 27.2316 26.3427 27.5891 25.7835 27.8183C25.2335 28.0475 24.6377 28.1666 23.996 28.1666C23.061 28.1666 22.0618 27.9466 21.0077 27.4975C19.9535 27.0483 18.8993 26.4433 17.8543 25.6825C16.8002 24.9125 15.801 24.06 14.8477 23.1158C13.9035 22.1625 13.051 21.1633 12.2902 20.1183C11.5385 19.0733 10.9335 18.0283 10.4935 16.9925C10.0535 15.9475 9.8335 14.9483 9.8335 13.995C9.8335 13.3716 9.9435 12.7758 10.1635 12.2258C10.3835 11.6666 10.7318 11.1533 11.2177 10.695C11.8043 10.1175 12.446 9.83331 13.1243 9.83331C13.381 9.83331 13.6377 9.88831 13.8668 9.99831C14.1052 10.1083 14.316 10.2733 14.481 10.5116L16.6077 13.5091C16.7727 13.7383 16.8918 13.9491 16.9743 14.1508C17.0568 14.3433 17.1027 14.5358 17.1027 14.71C17.1027 14.93 17.0385 15.15 16.9102 15.3608C16.791 15.5716 16.6168 15.7916 16.3968 16.0116L15.7002 16.7358C15.5993 16.8366 15.5535 16.9558 15.5535 17.1025C15.5535 17.1758 15.5627 17.24 15.581 17.3133C15.6085 17.3866 15.636 17.4416 15.6543 17.4966C15.8193 17.7991 16.1035 18.1933 16.5068 18.67C16.9193 19.1466 17.3593 19.6325 17.836 20.1183C18.331 20.6041 18.8077 21.0533 19.2935 21.4658C19.7702 21.8691 20.1643 22.1441 20.476 22.3091C20.5218 22.3275 20.5768 22.355 20.641 22.3825C20.7143 22.41 20.7877 22.4191 20.8702 22.4191C21.026 22.4191 21.1452 22.3641 21.246 22.2633L21.9427 21.5758C22.1718 21.3466 22.3918 21.1725 22.6027 21.0625C22.8135 20.9341 23.0243 20.87 23.2535 20.87C23.4277 20.87 23.611 20.9066 23.8127 20.9891C24.0143 21.0716 24.2252 21.1908 24.4543 21.3466L27.4885 23.5008C27.7268 23.6658 27.8918 23.8583 27.9927 24.0875C28.0843 24.3166 28.1393 24.5458 28.1393 24.8025Z" fill="var(--white)" />
	</symbol>
	<symbol id="email" stroke="none" viewBox="0 0 38 38" fill="none" xmlns="http://www.w3.org/2000/svg">
		<rect width="38" height="38" rx="8" fill="var(--white)" />
		<path d="M23.5835 11.2084H14.4168C11.6668 11.2084 9.8335 12.5834 9.8335 15.7917V22.2084C9.8335 25.4167 11.6668 26.7917 14.4168 26.7917H23.5835C26.3335 26.7917 28.1668 25.4167 28.1668 22.2084V15.7917C28.1668 12.5834 26.3335 11.2084 23.5835 11.2084ZM24.0143 16.7909L21.1452 19.0825C20.5402 19.5684 19.7702 19.8067 19.0002 19.8067C18.2302 19.8067 17.451 19.5684 16.8552 19.0825L13.986 16.7909C13.6927 16.5525 13.6468 16.1125 13.876 15.8192C14.1143 15.5259 14.5452 15.4709 14.8385 15.7092L17.7077 18.0009C18.4043 18.56 19.5868 18.56 20.2835 18.0009L23.1527 15.7092C23.446 15.4709 23.886 15.5167 24.1152 15.8192C24.3535 16.1125 24.3077 16.5525 24.0143 16.7909Z" fill="rgb(var(--prime))" />
	</symbol>
	<symbol id="email_r" stroke="none" viewBox="0 0 38 38" xmlns="http://www.w3.org/2000/svg">
		<rect width="38" height="38" rx="8" fill="rgb(var(--prime))" />
		<path d="M23.5835 11.2084H14.4168C11.6668 11.2084 9.8335 12.5834 9.8335 15.7917V22.2084C9.8335 25.4167 11.6668 26.7917 14.4168 26.7917H23.5835C26.3335 26.7917 28.1668 25.4167 28.1668 22.2084V15.7917C28.1668 12.5834 26.3335 11.2084 23.5835 11.2084ZM24.0143 16.7909L21.1452 19.0825C20.5402 19.5684 19.7702 19.8067 19.0002 19.8067C18.2302 19.8067 17.451 19.5684 16.8552 19.0825L13.986 16.7909C13.6927 16.5525 13.6468 16.1125 13.876 15.8192C14.1143 15.5259 14.5452 15.4709 14.8385 15.7092L17.7077 18.0009C18.4043 18.56 19.5868 18.56 20.2835 18.0009L23.1527 15.7092C23.446 15.4709 23.886 15.5167 24.1152 15.8192C24.3535 16.1125 24.3077 16.5525 24.0143 16.7909Z" fill="var(--white)" />
	</symbol>
	<symbol id="close" viewBox="0 0 32 32" fill="none" xmlns="http://www.w3.org/2000/svg">
		<path d="M24 8L8 24" stroke="rgb(var(--black))" stroke-width="1.5" stroke-linecap="round" stroke-linejoin="round" />
		<path d="M8 8L24 24" stroke="rgb(var(--black))" stroke-width="1.5" stroke-linecap="round" stroke-linejoin="round" />
	</symbol>
	<symbol id="chart-success" viewBox="0 0 26 27" fill="none" xmlns="http://www.w3.org/2000/svg">
		<path d="M23.8332 14.5833V10.25C23.8332 4.83329 21.6665 2.66663 16.2498 2.66663H9.74984C4.33317 2.66663 2.1665 4.83329 2.1665 10.25V16.75C2.1665 22.1666 4.33317 24.3333 9.74984 24.3333H14.0832" stroke="rgb(var(--prime))" stroke-width="1.5" stroke-linecap="round" stroke-linejoin="round" />
		<path d="M23.8332 14.5833V10.25C23.8332 4.83329 21.6665 2.66663 16.2498 2.66663H9.74984C4.33317 2.66663 2.1665 4.83329 2.1665 10.25V16.75C2.1665 22.1666 4.33317 24.3333 9.74984 24.3333H14.0832" stroke="#303F9F" stroke-width="1.5" stroke-linecap="round" stroke-linejoin="round" />
		<path d="M23.8332 14.5833V10.25C23.8332 4.83329 21.6665 2.66663 16.2498 2.66663H9.74984C4.33317 2.66663 2.1665 4.83329 2.1665 10.25V16.75C2.1665 22.1666 4.33317 24.3333 9.74984 24.3333H14.0832" stroke="rgb(var(--prime))" stroke-width="2" stroke-linecap="round" stroke-linejoin="round" />
		<path d="M17.3335 21.5491L19.0452 23.25L22.7502 18.9166" stroke="rgb(var(--prime))" stroke-width="2" stroke-linecap="round" stroke-linejoin="round" />
		<path d="M7.5835 11.875V15.125" stroke="rgb(var(--prime))" stroke-width="2" stroke-linecap="round" stroke-linejoin="round" />
		<path d="M13 11.875V15.125" stroke="rgb(var(--prime))" stroke-width="2" stroke-linecap="round" stroke-linejoin="round" />
		<path d="M18.4165 11.875V15.125" stroke="rgb(var(--prime))" stroke-width="2" stroke-linecap="round" stroke-linejoin="round" />
	</symbol>
	<symbol id="arrow-right" viewBox="0 0 18 19" fill="none" xmlns="http://www.w3.org/2000/svg">
		<path d="M6.68262 15.4401L11.5726 10.5501C12.1501 9.97256 12.1501 9.02756 11.5726 8.45006L6.68262 3.56006" stroke-width="1.5" stroke-miterlimit="10" stroke-linecap="round" stroke-linejoin="round" />
	</symbol>
	<symbol viewBox="0 0 13 13" fill="none" id="less" xmlns="http://www.w3.org/2000/svg">
		<path d="M0 7.09499V5.83789H12.9226V7.09499H0Z" fill="var(--prime)">
		</path>
	</symbol>
	<symbol id="edit" stroke="none" viewBox="0 0 24 24" fill="none" xmlns="http://www.w3.org/2000/svg">
		<path d="M16.19 2H7.81C4.17 2 2 4.17 2 7.81V16.18C2 19.83 4.17 22 7.81 22H16.18C19.82 22 21.99 19.83 21.99 16.19V7.81C22 4.17 19.83 2 16.19 2ZM10.95 17.51C10.66 17.8 10.11 18.08 9.71 18.14L7.25 18.49C7.16 18.5 7.07 18.51 6.98 18.51C6.57 18.51 6.19 18.37 5.92 18.1C5.59 17.77 5.45 17.29 5.53 16.76L5.88 14.3C5.94 13.89 6.21 13.35 6.51 13.06L10.97 8.6C11.05 8.81 11.13 9.02 11.24 9.26C11.34 9.47 11.45 9.69 11.57 9.89C11.67 10.06 11.78 10.22 11.87 10.34C11.98 10.51 12.11 10.67 12.19 10.76C12.24 10.83 12.28 10.88 12.3 10.9C12.55 11.2 12.84 11.48 13.09 11.69C13.16 11.76 13.2 11.8 13.22 11.81C13.37 11.93 13.52 12.05 13.65 12.14C13.81 12.26 13.97 12.37 14.14 12.46C14.34 12.58 14.56 12.69 14.78 12.8C15.01 12.9 15.22 12.99 15.43 13.06L10.95 17.51ZM17.37 11.09L16.45 12.02C16.39 12.08 16.31 12.11 16.23 12.11C16.2 12.11 16.16 12.11 16.14 12.1C14.11 11.52 12.49 9.9 11.91 7.87C11.88 7.76 11.91 7.64 11.99 7.57L12.92 6.64C14.44 5.12 15.89 5.15 17.38 6.64C18.14 7.4 18.51 8.13 18.51 8.89C18.5 9.61 18.13 10.33 17.37 11.09Z" fill="rgb(var(--prime))"/>
	</symbol>
	<symbol fill="none" xmlns="http://www.w3.org/2000/svg" viewBox="0 0 13 13" id="more">
		<g clip-path="url(#clip0_1506_556)">
			<path d="M5.83807 12.9332V0H7.08452V12.9332H5.83807ZM0 7.09517V5.83807H12.9226V7.09517H0Z" fill="var(--prime)">
			</path>
		</g>
		<defs>
			<clipPath id="clip0_1506_556">
				<rect width="13" height="13" fill="white">
				</rect>
			</clipPath>
		</defs>
	</symbol>
	<symbol stroke="none" id="prime" viewBox="0 0 35 40" fill="none" xmlns="http://www.w3.org/2000/svg">
		<path d="M35 0H0V40L17.5 35.0413L35 40V0Z" fill="rgb(var(--prime))" />
		<path d="M12.1454 19.7622H15.2074V26.8618C15.2074 27.9071 16.5154 28.4001 17.2091 27.6112L24.7104 19.1311C25.3644 18.3915 24.8392 17.2378 23.8483 17.2378H20.7863V10.1382C20.7863 9.09293 19.4783 8.5999 18.7846 9.38875L11.2833 17.8689C10.6392 18.6085 11.1644 19.7622 12.1454 19.7622Z" fill="white" />
	</symbol>
	<symbol id="download" viewBox="0 0 24 25" fill="none" xmlns="http://www.w3.org/2000/svg">
		<path d="M9.32031 12.18L11.8803 14.74L14.4403 12.18" stroke="#292D32" stroke-width="1.5" stroke-miterlimit="10" stroke-linecap="round" stroke-linejoin="round"/>
		<path d="M11.8799 4.5V14.67" stroke="#292D32" stroke-width="1.5" stroke-miterlimit="10" stroke-linecap="round" stroke-linejoin="round"/>
		<path d="M20 12.68C20 17.1 17 20.68 12 20.68C7 20.68 4 17.1 4 12.68" stroke="#292D32" stroke-width="1.5" stroke-miterlimit="10" stroke-linecap="round" stroke-linejoin="round"/>
	</symbol>
	<symbol id="speed" stroke="none" viewBox="0 0 24 25" fill="none" xmlns="http://www.w3.org/2000/svg">
		<path d="M10.2324 17.5094C9.74414 16.9696 9.5 16.3183 9.5 15.5553C9.5 14.7924 9.7474 14.1374 10.2422 13.5904L20.8672 5.77395L13.7773 17.5202C13.2956 18.0529 12.7064 18.3192 12.0098 18.3192C11.3132 18.3192 10.7207 18.0493 10.2324 17.5094ZM12 5.83873C10.8151 5.83873 9.67904 6.09784 8.5918 6.61606C7.50456 7.13428 6.57031 7.82524 5.78906 8.68893C5.00781 9.55263 4.38607 10.5819 3.92383 11.7767C3.46159 12.9714 3.23047 14.2238 3.23047 15.5337C3.23047 17.0596 3.54297 18.5135 4.16797 19.8954L3.07422 20.5C2.35807 18.9309 2 17.2827 2 15.5553C2 14.0439 2.26367 12.608 2.79102 11.2476C3.31836 9.88731 4.02799 8.71413 4.91992 7.72807C5.81185 6.74202 6.8763 5.95749 8.11328 5.37449C9.35026 4.7915 10.6458 4.5 12 4.5C14.0964 4.5 16.0039 5.16217 17.7227 6.4865L16.6094 7.30702C15.1901 6.32816 13.6536 5.83873 12 5.83873ZM20.2227 9.25034C21.4076 11.1505 22 13.2521 22 15.5553C22 17.2827 21.6419 18.9309 20.9258 20.5L19.832 19.8738C20.457 18.5063 20.7695 17.0596 20.7695 15.5337C20.7695 13.7344 20.3398 12.0502 19.4805 10.4811L20.2227 9.25034Z" fill="#2F2F2F"/>
	</symbol>
	<symbol id="play" stroke="none" viewBox="0 0 44 44" fill="none" xmlns="http://www.w3.org/2000/svg">
		<path d="M33 20.2679C34.3333 21.0377 34.3333 22.9623 33 23.7321L18 32.3923C16.6667 33.1621 15 32.1999 15 30.6603L15 13.3397C15 11.8001 16.6667 10.8379 18 11.6077L33 20.2679Z" fill="#303F9F"/>
	</symbol>
	<symbol id="pause" stroke="none" viewBox="0 0 44 44" fill="none" xmlns="http://www.w3.org/2000/svg">
		<path d="M20.65 29.11V14.89C20.65 13.54 20.08 13 18.64 13H15.01C13.57 13 13 13.54 13 14.89V29.11C13 30.46 13.57 31 15.01 31H18.64C20.08 31 20.65 30.46 20.65 29.11Z" fill="#303F9F"/>
		<path d="M30.9996 29.11V14.89C30.9996 13.54 30.4296 13 28.9896 13H25.3596C23.9296 13 23.3496 13.54 23.3496 14.89V29.11C23.3496 30.46 23.9196 31 25.3596 31H28.9896C30.4296 31 30.9996 30.46 30.9996 29.11Z" fill="#303F9F"/>
	</symbol>
	<symbol id="volume" stroke="none" viewBox="0 0 44 44" fill="none" xmlns="http://www.w3.org/2000/svg">
		<path d="M29.0003 27.5417C28.8137 27.5417 28.6387 27.4833 28.4753 27.3667C28.0903 27.075 28.0087 26.5267 28.3003 26.1417C30.132 23.7033 30.132 20.2967 28.3003 17.8583C28.0087 17.4733 28.0903 16.925 28.4753 16.6333C28.8603 16.3417 29.4087 16.4233 29.7003 16.8083C31.987 19.865 31.987 24.135 29.7003 27.1917C29.5253 27.425 29.2687 27.5417 29.0003 27.5417Z" fill="#303F9F"/>
		<path d="M31.1351 30.4583C30.9484 30.4583 30.7734 30.4 30.6101 30.2833C30.2251 29.9916 30.1434 29.4433 30.4351 29.0583C33.5501 24.905 33.5501 19.095 30.4351 14.9416C30.1434 14.5566 30.2251 14.0083 30.6101 13.7166C30.9951 13.425 31.5434 13.5066 31.8351 13.8916C35.4168 18.6633 35.4168 25.3366 31.8351 30.1083C31.6718 30.3416 31.4034 30.4583 31.1351 30.4583Z" fill="#303F9F"/>
		<path d="M24.3563 12.41C23.0497 11.6867 21.3813 11.8733 19.678 12.935L16.2713 15.07C16.038 15.21 15.7697 15.2917 15.5013 15.2917H14.4163H13.833C11.0097 15.2917 9.45801 16.8433 9.45801 19.6667V24.3333C9.45801 27.1567 11.0097 28.7083 13.833 28.7083H14.4163H15.5013C15.7697 28.7083 16.038 28.79 16.2713 28.93L19.678 31.065C20.7047 31.7067 21.708 32.0217 22.6413 32.0217C23.248 32.0217 23.8313 31.8817 24.3563 31.59C25.6513 30.8667 26.3747 29.3617 26.3747 27.355V16.645C26.3747 14.6383 25.6513 13.1333 24.3563 12.41Z" fill="#303F9F"/>
	</symbol>
	<symbol viewBox="0 0 44 44" id="volume-off" stroke="none" fill="none" xmlns="http://www.w3.org/2000/svg">
		<path d="M29.0003 27.5417C28.8137 27.5417 28.6387 27.4833 28.4753 27.3667C28.0903 27.075 28.0087 26.5267 28.3003 26.1417C29.7703 24.1817 30.0853 21.58 29.1403 19.3283C28.9537 18.885 29.1637 18.3717 29.607 18.185C30.0503 17.9983 30.5637 18.2083 30.7503 18.6517C31.9403 21.475 31.532 24.7533 29.7003 27.2033C29.5253 27.425 29.2687 27.5417 29.0003 27.5417Z" fill="#303F9F"/>
		<path d="M31.1351 30.4583C30.9484 30.4583 30.7734 30.4 30.6101 30.2833C30.2251 29.9917 30.1434 29.4433 30.4351 29.0583C32.9318 25.7333 33.4801 21.2767 31.8701 17.4383C31.6834 16.995 31.8934 16.4817 32.3368 16.295C32.7801 16.1083 33.2934 16.3183 33.4801 16.7617C35.3351 21.1717 34.7051 26.2817 31.8351 30.1083C31.6718 30.3417 31.4034 30.4583 31.1351 30.4583Z" fill="#303F9F"/>
		<path d="M24.3802 23.12C25.1152 22.385 26.3752 22.91 26.3752 23.9483V27.3667C26.3752 29.3733 25.6519 30.8783 24.3569 31.6017C23.8319 31.8933 23.2486 32.0333 22.6419 32.0333C21.7086 32.0333 20.7052 31.7183 19.6786 31.0767L18.9319 30.61C18.3019 30.2133 18.1969 29.3267 18.7219 28.8017L24.3802 23.12Z" fill="#303F9F"/>
		<path d="M33.398 10.6017C33.048 10.2517 32.4763 10.2517 32.1263 10.6017L26.3513 16.3767C26.2813 14.51 25.5813 13.11 24.3447 12.4217C23.038 11.6983 21.3697 11.885 19.6663 12.9467L16.2713 15.07C16.038 15.21 15.7697 15.2917 15.5013 15.2917H14.4163H13.833C11.0097 15.2917 9.45801 16.8433 9.45801 19.6667V24.3333C9.45801 27.1567 11.0097 28.7083 13.833 28.7083H14.0197L10.5897 32.1383C10.2397 32.4883 10.2397 33.06 10.5897 33.41C10.7763 33.5733 10.998 33.6667 11.2313 33.6667C11.4647 33.6667 11.6863 33.5733 11.8613 33.3983L33.398 11.8617C33.7597 11.5117 33.7597 10.9517 33.398 10.6017Z" fill="#303F9F"/>
	</symbol>
	<symbol id="arrow-left" viewBox="0 0 24 25" fill="none" xmlns="http://www.w3.org/2000/svg">
		<path d="M15.0898 4.57998L8.56984 11.1C7.79984 11.87 7.79984 13.13 8.56984 13.9L15.0898 20.42" stroke="#2F2F2F" stroke-width="1.5" stroke-miterlimit="10" stroke-linecap="round" stroke-linejoin="round"/>
	</symbol>
	<symbol id="dots" stroke="none" viewBox="0 0 43 43" fill="none" xmlns="http://www.w3.org/2000/svg">
		<circle cx="21.5" cy="13.5" r="2.5" fill="#303F9F"/>
		<circle cx="21.5" cy="21.5" r="2.5" fill="#303F9F"/>
		<circle cx="21.5" cy="29.5" r="2.5" fill="#303F9F"/>
	</symbol>
	<symbol id="arrow-right" viewBox="0 0 10 11" fill="none" xmlns="http://www.w3.org/2000/svg">
		<path d="M3.71289 8.80001L6.42956 6.08335C6.75039 5.76251 6.75039 5.23751 6.42956 4.91668L3.71289 2.20001" stroke="#2F2F2F" stroke-miterlimit="10" stroke-linecap="round" stroke-linejoin="round"/>
	</symbol>
	<symbol id="selected" stroke="none" viewBox="0 0 20 21" fill="none" xmlns="http://www.w3.org/2000/svg">
		<path d="M10.0003 2.16669C5.40866 2.16669 1.66699 5.90835 1.66699 10.5C1.66699 15.0917 5.40866 18.8334 10.0003 18.8334C14.592 18.8334 18.3337 15.0917 18.3337 10.5C18.3337 5.90835 14.592 2.16669 10.0003 2.16669ZM13.9837 8.58335L9.25866 13.3084C9.14199 13.425 8.98366 13.4917 8.81699 13.4917C8.65033 13.4917 8.49199 13.425 8.37533 13.3084L6.01699 10.95C5.77533 10.7084 5.77533 10.3084 6.01699 10.0667C6.25866 9.82502 6.65866 9.82502 6.90033 10.0667L8.81699 11.9834L13.1003 7.70002C13.342 7.45835 13.742 7.45835 13.9837 7.70002C14.2253 7.94169 14.2253 8.33335 13.9837 8.58335Z" fill="#303F9F"/>
	</symbol>
</svg>
