<svg xmlns="http://www.w3.org/2000/svg" fill="none">
	<symbol stroke="none" id="user" viewBox="0 0 86 85" xmlns="http://www.w3.org/2000/svg">
		<path opacity="0.4" d="M43.0002 77.9521C62.5602 77.9521 78.4168 62.0955 78.4168 42.5354C78.4168 22.9754 62.5602 7.11877 43.0002 7.11877C23.4401 7.11877 7.5835 22.9754 7.5835 42.5354C7.5835 62.0955 23.4401 77.9521 43.0002 77.9521Z" fill="rgb(var(--prime))" />
		<path stroke="none" d="M43 24.5792C35.6688 24.5792 29.7188 30.5292 29.7188 37.8605C29.7188 45.0501 35.35 50.8938 42.8229 51.1063C42.9292 51.1063 43.0708 51.1063 43.1417 51.1063C43.2125 51.1063 43.3187 51.1063 43.3896 51.1063C43.425 51.1063 43.4604 51.1063 43.4604 51.1063C50.6146 50.8584 56.2458 45.0501 56.2812 37.8605C56.2812 30.5292 50.3313 24.5792 43 24.5792Z" fill="rgb(var(--prime))" />
		<path stroke="none" d="M67.0123 68.5666C60.7081 74.375 52.279 77.9521 42.9998 77.9521C33.7206 77.9521 25.2915 74.375 18.9873 68.5666C19.8373 65.3437 22.1394 62.4041 25.504 60.1375C35.1727 53.6916 50.8977 53.6916 60.4956 60.1375C63.8956 62.4041 66.1623 65.3437 67.0123 68.5666Z" fill="rgb(var(--prime))" />
	</symbol>
	<symbol id="subs" viewBox="0 0 30 30" xmlns="http://www.w3.org/2000/svg">
		<path d="M27.5 16.25V11.25C27.5 5 25 2.5 18.75 2.5H11.25C5 2.5 2.5 5 2.5 11.25V18.75C2.5 25 5 27.5 11.25 27.5H16.25" stroke-width="1.5" stroke-linecap="round" stroke-linejoin="round" />
		<path d="M27.5 16.25V11.25C27.5 5 25 2.5 18.75 2.5H11.25C5 2.5 2.5 5 2.5 11.25V18.75C2.5 25 5 27.5 11.25 27.5H16.25" stroke-width="1.5" stroke-linecap="round" stroke-linejoin="round" />
		<path d="M27.5 16.25V11.25C27.5 5 25 2.5 18.75 2.5H11.25C5 2.5 2.5 5 2.5 11.25V18.75C2.5 25 5 27.5 11.25 27.5H16.25" stroke-width="2" stroke-linecap="round" stroke-linejoin="round" />
		<path d="M20 24.2875L21.975 26.25L26.25 21.25" stroke-width="2" stroke-linecap="round" stroke-linejoin="round" />
		<path d="M8.75 13.125V16.875" stroke-width="2" stroke-linecap="round" stroke-linejoin="round" />
		<path d="M15 13.125V16.875" stroke-width="2" stroke-linecap="round" stroke-linejoin="round" />
		<path d="M21.25 13.125V16.875" stroke-width="2" stroke-linecap="round" stroke-linejoin="round" />
	</symbol>
	<symbol id="chat" viewBox="0 0 30 30" xmlns="http://www.w3.org/2000/svg">
		<path d="M20 2.5H10C5 2.5 2.5 5 2.5 10V26.25C2.5 26.9375 3.0625 27.5 3.75 27.5H20C25 27.5 27.5 25 27.5 20V10C27.5 5 25 2.5 20 2.5Z" stroke-width="2" stroke-linecap="round" stroke-linejoin="round" />
		<path d="M8.75 11.875H21.25" stroke-width="2" stroke-miterlimit="10" stroke-linecap="round" stroke-linejoin="round" />
		<path d="M8.75 18.125H17.5" stroke-width="2" stroke-miterlimit="10" stroke-linecap="round" stroke-linejoin="round" />
	</symbol>
	<symbol id="check" stroke="none" viewBox="0 0 27 27" xmlns="http://www.w3.org/2000/svg">
		<g clip-path="url(#clip0_4028_758)">
			<path d="M13.3333 0C5.98667 0 0 5.98667 0 13.3333C0 20.68 5.98667 26.6667 13.3333 26.6667C20.68 26.6667 26.6667 20.68 26.6667 13.3333C26.6667 5.98667 20.68 0 13.3333 0ZM19.7067 10.2667L12.1467 17.8267C11.96 18.0133 11.7067 18.12 11.44 18.12C11.1733 18.12 10.92 18.0133 10.7333 17.8267L6.96 14.0533C6.57333 13.6667 6.57333 13.0267 6.96 12.64C7.34667 12.2533 7.98667 12.2533 8.37333 12.64L11.44 15.7067L18.2933 8.85333C18.68 8.46667 19.32 8.46667 19.7067 8.85333C20.0933 9.24 20.0933 9.86667 19.7067 10.2667Z" />
		</g>
		<defs>
			<clipPath id="clip0_4028_758">
				<rect width="26.6667" height="26.6667" rx="13.3333" fill="white" />
			</clipPath>
		</defs>
	</symbol>
	<symbol stroke="none" id="phone" viewBox="0 0 38 38" fill="none" xmlns="http://www.w3.org/2000/svg">
		<rect width="38" height="38" rx="8" fill="var(--white)" />
		<path d="M28.1393 24.8025C28.1393 25.1325 28.066 25.4716 27.9102 25.8016C27.7543 26.1316 27.5527 26.4433 27.2868 26.7366C26.8377 27.2316 26.3427 27.5891 25.7835 27.8183C25.2335 28.0475 24.6377 28.1666 23.996 28.1666C23.061 28.1666 22.0618 27.9466 21.0077 27.4975C19.9535 27.0483 18.8993 26.4433 17.8543 25.6825C16.8002 24.9125 15.801 24.06 14.8477 23.1158C13.9035 22.1625 13.051 21.1633 12.2902 20.1183C11.5385 19.0733 10.9335 18.0283 10.4935 16.9925C10.0535 15.9475 9.8335 14.9483 9.8335 13.995C9.8335 13.3716 9.9435 12.7758 10.1635 12.2258C10.3835 11.6666 10.7318 11.1533 11.2177 10.695C11.8043 10.1175 12.446 9.83331 13.1243 9.83331C13.381 9.83331 13.6377 9.88831 13.8668 9.99831C14.1052 10.1083 14.316 10.2733 14.481 10.5116L16.6077 13.5091C16.7727 13.7383 16.8918 13.9491 16.9743 14.1508C17.0568 14.3433 17.1027 14.5358 17.1027 14.71C17.1027 14.93 17.0385 15.15 16.9102 15.3608C16.791 15.5716 16.6168 15.7916 16.3968 16.0116L15.7002 16.7358C15.5993 16.8366 15.5535 16.9558 15.5535 17.1025C15.5535 17.1758 15.5627 17.24 15.581 17.3133C15.6085 17.3866 15.636 17.4416 15.6543 17.4966C15.8193 17.7991 16.1035 18.1933 16.5068 18.67C16.9193 19.1466 17.3593 19.6325 17.836 20.1183C18.331 20.6041 18.8077 21.0533 19.2935 21.4658C19.7702 21.8691 20.1643 22.1441 20.476 22.3091C20.5218 22.3275 20.5768 22.355 20.641 22.3825C20.7143 22.41 20.7877 22.4191 20.8702 22.4191C21.026 22.4191 21.1452 22.3641 21.246 22.2633L21.9427 21.5758C22.1718 21.3466 22.3918 21.1725 22.6027 21.0625C22.8135 20.9341 23.0243 20.87 23.2535 20.87C23.4277 20.87 23.611 20.9066 23.8127 20.9891C24.0143 21.0716 24.2252 21.1908 24.4543 21.3466L27.4885 23.5008C27.7268 23.6658 27.8918 23.8583 27.9927 24.0875C28.0843 24.3166 28.1393 24.5458 28.1393 24.8025Z" fill="rgb(var(--prime))" />
	</symbol>
	<symbol id="email" stroke="none" viewBox="0 0 38 38" fill="none" xmlns="http://www.w3.org/2000/svg">
		<rect width="38" height="38" rx="8" fill="var(--white)" />
		<path d="M23.5835 11.2084H14.4168C11.6668 11.2084 9.8335 12.5834 9.8335 15.7917V22.2084C9.8335 25.4167 11.6668 26.7917 14.4168 26.7917H23.5835C26.3335 26.7917 28.1668 25.4167 28.1668 22.2084V15.7917C28.1668 12.5834 26.3335 11.2084 23.5835 11.2084ZM24.0143 16.7909L21.1452 19.0825C20.5402 19.5684 19.7702 19.8067 19.0002 19.8067C18.2302 19.8067 17.451 19.5684 16.8552 19.0825L13.986 16.7909C13.6927 16.5525 13.6468 16.1125 13.876 15.8192C14.1143 15.5259 14.5452 15.4709 14.8385 15.7092L17.7077 18.0009C18.4043 18.56 19.5868 18.56 20.2835 18.0009L23.1527 15.7092C23.446 15.4709 23.886 15.5167 24.1152 15.8192C24.3535 16.1125 24.3077 16.5525 24.0143 16.7909Z" fill="rgb(var(--prime))" />
	</symbol>
	<symbol id="email_r" stroke="none" viewBox="0 0 38 38" xmlns="http://www.w3.org/2000/svg">
		<rect width="38" height="38" rx="8" fill="rgb(var(--prime))" />
		<path d="M23.5835 11.2084H14.4168C11.6668 11.2084 9.8335 12.5834 9.8335 15.7917V22.2084C9.8335 25.4167 11.6668 26.7917 14.4168 26.7917H23.5835C26.3335 26.7917 28.1668 25.4167 28.1668 22.2084V15.7917C28.1668 12.5834 26.3335 11.2084 23.5835 11.2084ZM24.0143 16.7909L21.1452 19.0825C20.5402 19.5684 19.7702 19.8067 19.0002 19.8067C18.2302 19.8067 17.451 19.5684 16.8552 19.0825L13.986 16.7909C13.6927 16.5525 13.6468 16.1125 13.876 15.8192C14.1143 15.5259 14.5452 15.4709 14.8385 15.7092L17.7077 18.0009C18.4043 18.56 19.5868 18.56 20.2835 18.0009L23.1527 15.7092C23.446 15.4709 23.886 15.5167 24.1152 15.8192C24.3535 16.1125 24.3077 16.5525 24.0143 16.7909Z" fill="var(--white)" />
	</symbol>
	<symbol id="close" viewBox="0 0 32 32" fill="none" xmlns="http://www.w3.org/2000/svg">
		<path d="M24 8L8 24" stroke="rgb(var(--black))" stroke-width="1.5" stroke-linecap="round" stroke-linejoin="round" />
		<path d="M8 8L24 24" stroke="rgb(var(--black))" stroke-width="1.5" stroke-linecap="round" stroke-linejoin="round" />
	</symbol>
	<symbol id="chart-success" viewBox="0 0 26 27" fill="none" xmlns="http://www.w3.org/2000/svg">
		<path d="M23.8332 14.5833V10.25C23.8332 4.83329 21.6665 2.66663 16.2498 2.66663H9.74984C4.33317 2.66663 2.1665 4.83329 2.1665 10.25V16.75C2.1665 22.1666 4.33317 24.3333 9.74984 24.3333H14.0832" stroke="rgb(var(--prime))" stroke-width="1.5" stroke-linecap="round" stroke-linejoin="round" />
		<path d="M23.8332 14.5833V10.25C23.8332 4.83329 21.6665 2.66663 16.2498 2.66663H9.74984C4.33317 2.66663 2.1665 4.83329 2.1665 10.25V16.75C2.1665 22.1666 4.33317 24.3333 9.74984 24.3333H14.0832" stroke="#303F9F" stroke-width="1.5" stroke-linecap="round" stroke-linejoin="round" />
		<path d="M23.8332 14.5833V10.25C23.8332 4.83329 21.6665 2.66663 16.2498 2.66663H9.74984C4.33317 2.66663 2.1665 4.83329 2.1665 10.25V16.75C2.1665 22.1666 4.33317 24.3333 9.74984 24.3333H14.0832" stroke="rgb(var(--prime))" stroke-width="2" stroke-linecap="round" stroke-linejoin="round" />
		<path d="M17.3335 21.5491L19.0452 23.25L22.7502 18.9166" stroke="rgb(var(--prime))" stroke-width="2" stroke-linecap="round" stroke-linejoin="round" />
		<path d="M7.5835 11.875V15.125" stroke="rgb(var(--prime))" stroke-width="2" stroke-linecap="round" stroke-linejoin="round" />
		<path d="M13 11.875V15.125" stroke="rgb(var(--prime))" stroke-width="2" stroke-linecap="round" stroke-linejoin="round" />
		<path d="M18.4165 11.875V15.125" stroke="rgb(var(--prime))" stroke-width="2" stroke-linecap="round" stroke-linejoin="round" />
	</symbol>
	<symbol id="arrow-right" viewBox="0 0 18 19" fill="none" xmlns="http://www.w3.org/2000/svg">
		<path d="M6.68262 15.4401L11.5726 10.5501C12.1501 9.97256 12.1501 9.02756 11.5726 8.45006L6.68262 3.56006" stroke-width="1.5" stroke-miterlimit="10" stroke-linecap="round" stroke-linejoin="round" />
	</symbol>
	<symbol viewBox="0 0 13 13" fill="none" id="less" xmlns="http://www.w3.org/2000/svg">
		<path d="M0 7.09499V5.83789H12.9226V7.09499H0Z" fill="var(--prime)">
		</path>
	</symbol>
	<symbol fill="none" xmlns="http://www.w3.org/2000/svg" viewBox="0 0 13 13" id="more">
		<g clip-path="url(#clip0_1506_556)">
			<path d="M5.83807 12.9332V0H7.08452V12.9332H5.83807ZM0 7.09517V5.83807H12.9226V7.09517H0Z" fill="var(--prime)">
			</path>
		</g>
		<defs>
			<clipPath id="clip0_1506_556">
				<rect width="13" height="13" fill="white">
				</rect>
			</clipPath>
		</defs>
	</symbol>
	<symbol stroke="none" id="prime" viewBox="0 0 35 40" fill="none" xmlns="http://www.w3.org/2000/svg">
		<path d="M35 0H0V40L17.5 35.0413L35 40V0Z" fill="rgb(var(--prime))" />
		<path d="M12.1454 19.7622H15.2074V26.8618C15.2074 27.9071 16.5154 28.4001 17.2091 27.6112L24.7104 19.1311C25.3644 18.3915 24.8392 17.2378 23.8483 17.2378H20.7863V10.1382C20.7863 9.09293 19.4783 8.5999 18.7846 9.38875L11.2833 17.8689C10.6392 18.6085 11.1644 19.7622 12.1454 19.7622Z" fill="white" />
	</symbol>
</svg>
